# xmcd CD database file
#
# Track frame offsets:
#	150
#	54540
#	103463
#	131525
#	153755
#
# Disc length: 2380 seconds
#
# Revision: 0
# Processed by: cddbd v1.5.2PL0 Copyright (c) Steve Scherf et al.
# Submitted via: CDex 1.51
#
DISCID=3d094a05
DTITLE=John Coltrane and Red Garland - Soultrane
DYEAR=1959
DGENRE=Jazz
TTITLE0=Good Bait
TTITLE1=I Want To Talk About You
TTITLE2=You Say You Care 
TTITLE3=Theme For Ernie
TTITLE4=Russian Lullabay
EXTD=YEAR: 1959
EXTT0=
EXTT1=
EXTT2=
EXTT3=
EXTT4=
PLAYORDER=
